<svg xmlns="http://www.w3.org/2000/svg" width="40" height="54" fill="none" viewBox="0 0 40 54">
  <path fill="#8B5CF6" d="M0 21.742c0-.981.853-1.876 2.257-2.555.269-4.961 2.1-9.658 5.172-13.193C10.763 2.156 15.285 0 20 0s9.237 2.156 12.57 5.994c3.073 3.535 4.904 8.232 5.173 13.193 1.404.679 2.257 1.574 2.257 2.555 0 1.636-2.373 3.033-5.714 3.585v8.778c0 .785.64 1.421 1.428 1.421.79 0 1.429-.636 1.429-1.42v-2.843c0-.785.64-1.42 1.428-1.42.79 0 1.429.635 1.429 1.42v2.842c0 2.355-1.919 4.263-4.286 4.263-2.367 0-4.285-1.908-4.285-4.263v-8.528l-.318.002c-1.426 0-2.774-.145-3.968-.403v24.56c0 .786.64 1.422 1.428 1.422.79 0 1.429-.636 1.429-1.421v-2.842c0-.785.64-1.421 1.429-1.421s1.428.636 1.428 1.42v2.843c0 2.354-1.919 4.263-4.286 4.263-2.367 0-4.285-1.909-4.285-4.263V25.104c-1.271.303-2.732.475-4.286.475v12.79c0 2.354-1.919 4.263-4.286 4.263-2.367 0-4.285-1.91-4.285-4.264v-2.842c0-.785.64-1.42 1.428-1.42.79 0 1.429.636 1.429 1.42v2.842c0 .785.64 1.421 1.428 1.421.79 0 1.429-.636 1.429-1.42V25.375a14.92 14.92 0 0 1-2.699-.639c-1.521.527-3.453.842-5.555.842-.106 0-.212 0-.318-.003v18.477c0 2.354-1.918 4.263-4.285 4.263S0 46.407 0 44.053V41.21c0-.785.64-1.422 1.429-1.422s1.428.637 1.428 1.422v2.842c0 .785.64 1.42 1.429 1.42s1.428-.636 1.428-1.42V25.327C2.373 24.775 0 23.378 0 21.742Z"/>
  <path fill="#8B5CF6" d="M2.857 36.947c0 .785-.64 1.421-1.428 1.421A1.425 1.425 0 0 1 0 36.948c0-.785.64-1.422 1.429-1.422s1.428.636 1.428 1.421ZM12.857 32.684c.79 0 1.429-.636 1.429-1.42 0-.786-.64-1.422-1.429-1.422s-1.428.636-1.428 1.421.64 1.421 1.428 1.421ZM31.429 44.053A1.425 1.425 0 0 1 30 42.632c0-.785.64-1.421 1.429-1.421s1.428.636 1.428 1.42c0 .785-.64 1.422-1.428 1.422ZM38.571 28.421A1.425 1.425 0 0 1 37.143 27c0-.785.64-1.421 1.428-1.421.79 0 1.429.636 1.429 1.421s-.64 1.421-1.429 1.421Z"/>
</svg>
